<?xml version="1.0" encoding="UTF-8" standalone="no"?>
<svg
   xmlns:dc="http://purl.org/dc/elements/1.1/"
   xmlns:cc="http://creativecommons.org/ns#"
   xmlns:rdf="http://www.w3.org/1999/02/22-rdf-syntax-ns#"
   xmlns:svg="http://www.w3.org/2000/svg"
   xmlns="http://www.w3.org/2000/svg"
   id="svg8"
   version="1.1"
   viewBox="0 0 120.39241 60.728199"
   height="60.728199mm"
   width="120.39241mm">
  <defs
     id="defs2" />
  <metadata
     id="metadata5">
    <rdf:RDF>
      <cc:Work
         rdf:about="">
        <dc:format>image/svg+xml</dc:format>
        <dc:type
           rdf:resource="http://purl.org/dc/dcmitype/StillImage" />
        <dc:title></dc:title>
      </cc:Work>
    </rdf:RDF>
  </metadata>
  <g
     transform="translate(-87.51001,4.2152308)"
     id="layer1">
    <rect
       transform="matrix(0.86255834,0.50595762,-0.59557738,0.80329795,0,0)"
       rx="27.609528"
       ry="2.7619271"
       y="-32.613697"
       x="96.54985"
       height="27.998713"
       width="19.367014"
       id="rect815"
       style="opacity:1;fill:#ff7f29;fill-opacity:0.56078401;fill-rule:nonzero;stroke:none;stroke-width:0.22274075;stroke-linejoin:bevel;stroke-miterlimit:4;stroke-dasharray:none;stroke-opacity:0.72857139;paint-order:stroke fill markers" />
    <ellipse
       transform="matrix(0.86036718,0.50967472,-0.59208127,0.80587826,0,0)"
       ry="3.0592866"
       rx="2.9891646"
       cy="-26.88389"
       cx="105.29533"
       id="path817"
       style="opacity:1;fill:#ffffff;fill-opacity:0.56190479;fill-rule:nonzero;stroke:none;stroke-width:0.20845154;stroke-linejoin:bevel;stroke-miterlimit:4;stroke-dasharray:none;stroke-opacity:0.72857139;paint-order:stroke fill markers" />
    <ellipse
       ry="4.0304699"
       rx="1.9919541"
       cy="25.739878"
       cx="107.47704"
       id="path819"
       style="opacity:1;fill:none;fill-opacity:0.56190479;fill-rule:nonzero;stroke:#333333;stroke-width:0.55573082;stroke-linejoin:bevel;stroke-miterlimit:4;stroke-dasharray:none;stroke-opacity:0.72857139;paint-order:stroke fill markers" />
    <path
       id="path874"
       d="m 108.14961,29.363012 c 0.0243,0.0087 0.0487,0.0174 0.073,0.02593 0.0132,0.005 0.0286,0.0089 0.0406,0.0174 0.007,0.0054 0.0171,0.02214 0.0243,0.02591 0.005,0.0027 0.0124,-0.0039 0.0163,0 0.002,0.0023 -0.002,0.0066 0,0.0087 0.004,0.0039 0.0115,-0.0027 0.0163,0 0.004,0.0016 0.005,0.0068 0.008,0.0087 0.005,0.0027 0.0115,-0.0027 0.0163,0 0.01,0.005 0.0146,0.02077 0.0244,0.02593 0.003,0.0011 0.006,-0.0011 0.008,0 0.004,0.0016 0.005,0.0068 0.008,0.0087 0.003,0.0011 0.006,-0.0011 0.008,0 0.007,0.0039 0.009,0.01367 0.0163,0.0174 0.003,0.0011 0.006,-0.0011 0.008,0 0.007,0.0039 0.009,0.01367 0.0163,0.0174 0.003,0.0011 0.006,-0.0011 0.008,0 0.004,0.0016 0.005,0.0058 0.008,0.0087 0.003,0.0027 0.005,0.0058 0.008,0.0087"
       style="fill:#ffb380;stroke:#ffb380;stroke-width:0.13040614;stroke-linecap:butt;stroke-linejoin:miter;stroke-miterlimit:4;stroke-dasharray:none;stroke-opacity:1" />
    <path
       id="path876"
       d="m 109.15606,26.682009 c 0.0109,0.0027 0.0217,0.0058 0.0324,0.0087 0.003,0.0027 0.005,0.0068 0.008,0.0087 0.003,0.0011 0.006,-0.0011 0.008,0 0.004,0.0016 0.005,0.0068 0.008,0.0087 0.003,0.0016 0.0227,-0.0016 0.0244,0 0.002,0.0023 -0.002,0.0066 0,0.0087 0.004,0.0039 0.0124,-0.0039 0.0163,0 0.002,0.0023 -0.002,0.0066 0,0.0087 0.004,0.0039 0.0115,-0.0027 0.0163,0 0.007,0.0039 0.009,0.01367 0.0163,0.0174 0.003,0.0011 0.006,-0.0011 0.008,0 0.004,0.0016 0.005,0.0068 0.008,0.0087 0.003,0.0016 0.0227,-0.0016 0.0243,0 0.002,0.0023 -0.002,0.0066 0,0.0087 0.002,0.0016 0.0211,-0.0016 0.0243,0 0.004,0.0016 0.005,0.0068 0.008,0.0087 0.003,0.0011 0.006,-0.0011 0.008,0 0.004,0.0016 0.005,0.0068 0.008,0.0087 0.005,0.0027 0.0115,-0.0027 0.0163,0 0.004,0.0016 0.005,0.0068 0.008,0.0087 0.003,0.0011 0.006,-0.0011 0.008,0 0.004,0.0016 0.005,0.0068 0.008,0.0087 0.003,0.0011 0.006,-0.0011 0.008,0 0.004,0.0016 0.005,0.0068 0.008,0.0087 0.003,0.0016 0.0227,-0.0016 0.0244,0 0.002,0.0023 -0.002,0.0066 0,0.0087 0.004,0.0039 0.0115,-0.0027 0.0163,0 0.004,0.0016 0.005,0.0068 0.008,0.0087 0.006,0.02636 0.0225,0.0033 0.0324,0.0087 0.007,0.0039 0.009,0.01367 0.0163,0.0174 0.0239,0.01263 -0.0107,-0.02009 0.0163,0.0087"
       style="fill:#ff9955;stroke:#ffb380;stroke-width:0.13040614;stroke-linecap:butt;stroke-linejoin:miter;stroke-miterlimit:4;stroke-dasharray:none;stroke-opacity:1" />
    <path
       id="path878"
       d="m 109.47364,26.812478 c -0.0235,0.03974 -0.047,0.07948 -0.0705,0.119203 0,0.0058 0.002,0.0118 0,0.01719 -10e-4,0.0039 -0.008,0.005 -0.0101,0.0087 -0.003,0.005 0.002,0.0118 0,0.01719 -0.003,0.0062 -0.008,0.01118 -0.0101,0.01719 -0.001,0.0027 10e-4,0.006 0,0.0087 -0.004,0.0072 -0.0157,0.0099 -0.02,0.01719 -10e-4,0.0027 0.001,0.006 0,0.0087 -0.004,0.0072 -0.0157,0.0099 -0.02,0.01719 -0.002,0.0033 0.002,0.02392 0,0.02566 -0.003,0.0023 -0.008,-0.0023 -0.0101,0 -0.001,0.0011 10e-4,0.01367 0,0.01719 -0.003,0.0089 -0.007,0.01698 -0.0101,0.02568 -0.002,0.0058 0.003,0.02098 0,0.02568 -0.002,0.0039 -0.008,0.005 -0.0101,0.0087 -0.003,0.0056 0.003,0.04328 0,0.05136 -0.003,0.0062 -0.008,0.01118 -0.0101,0.01719 -0.003,0.006 0.003,0.02071 0,0.02572 -0.002,0.0039 -0.008,0.005 -0.0101,0.0087 -0.003,0.005 0.003,0.01222 0,0.01719 -0.002,0.0039 -0.008,0.005 -0.0101,0.0087 -0.003,0.005 0.003,0.01222 0,0.01719 -0.002,0.0039 -0.008,0.005 -0.0101,0.0087 -0.002,0.0054 0.002,0.0118 0,0.01719 -0.004,0.01243 -0.0142,0.02241 -0.02,0.03421 -0.004,0.0085 -0.006,0.01719 -0.0101,0.02568 -0.003,0.006 -0.007,0.01139 -0.0101,0.01719 -0.008,0.01677 -0.0122,0.03461 -0.02,0.05136 -0.003,0.006 -0.007,0.0116 -0.0101,0.01719 -0.003,0.0058 -0.006,0.01201 -0.0101,0.01719 -0.01,0.01263 -0.03,0.02164 -0.0397,0.03421 -0.0152,0.01967 -0.004,0.02311 -0.02,0.04281 -0.003,0.0033 -0.007,0.0054 -0.0101,0.0087 -0.004,0.0054 -0.006,0.01201 -0.01,0.01719 -0.003,0.0033 -0.007,0.0054 -0.0101,0.0087 -0.0219,0.0043 -0.005,0.0176 -0.0101,0.02572 -0.002,0.0039 -0.008,0.005 -0.0101,0.0087 -0.003,0.005 0.003,0.01222 0,0.01719 -0.002,0.0039 -0.008,0.005 -0.0101,0.0087 -0.001,0.0027 0,0.0058 0,0.0087 0,0.0027 0.001,0.006 0,0.0087 -0.002,0.0039 -0.008,0.005 -0.0101,0.0087 -10e-4,0.0027 0.001,0.006 0,0.0087 -0.002,0.0039 -0.008,0.005 -0.0101,0.0087 -0.001,0.0027 0,0.02181 0,0.02568 0,0.01719 0,0.03421 0,0.05136 0,0.0087 0.002,0.01719 0,0.02568 -0.001,0.0062 -0.009,0.01098 -0.0101,0.01719 -0.002,0.0085 0,0.01719 0,0.02572 0,0.0058 -0.002,0.0118 0,0.01719 0.0124,0.03175 0.0101,-0.01056 0.0101,0.01719 0,0.0062 -0.001,0.04914 0,0.05136 0.002,0.0039 0.008,0.005 0.0101,0.0087 0.003,0.005 -0.003,0.01222 0,0.01719 0.002,0.0039 0.008,0.005 0.0101,0.0087 0.003,0.005 -0.003,0.01222 0,0.01719 0.002,0.0039 0.008,0.005 0.0101,0.0087 0.002,0.0054 0,0.0116 0,0.01719 0,0.0058 0,0.0116 0,0.01719 0,0.0083 0.002,0.04627 0,0.05136 -0.003,0.0062 -0.008,0.01118 -0.0101,0.01719 -0.001,0.0027 0.001,0.006 0,0.0087 -0.002,0.0039 -0.008,0.005 -0.0101,0.0087 -10e-4,0.0027 0.001,0.006 0,0.0087 -0.002,0.0039 -0.008,0.005 -0.0101,0.0087 -0.001,0.0027 0.001,0.006 0,0.0087 -0.002,0.0039 -0.008,0.005 -0.0101,0.0087 -0.001,0.0027 10e-4,0.006 0,0.0087 -0.003,0.0056 -0.0418,0.03608 -0.0496,0.04281 -0.003,0.0027 -0.008,0.005 -0.0101,0.0087 -0.001,0.0027 0.001,0.006 0,0.0087 -0.003,0.0043 -0.0245,0.02114 -0.0297,0.02568 -0.02,0.01719 -0.0397,0.03421 -0.0596,0.05136 -0.005,0.0043 -0.0271,0.02108 -0.0297,0.02572 -0.001,0.0027 0.001,0.006 0,0.0087 -0.006,0.01036 -0.0238,0.01533 -0.0298,0.02572 -0.001,0.0027 10e-4,0.006 0,0.0087 -0.002,0.0039 -0.007,0.0058 -0.0101,0.0087 -0.003,0.0027 -0.007,0.0058 -0.0101,0.0087 -0.003,0.0027 -0.007,0.0058 -0.0101,0.0087 -0.003,0.0027 -0.008,0.005 -0.0101,0.0087 -0.002,0.0054 0.002,0.0118 0,0.01719 -0.003,0.0077 -0.0148,0.01056 -0.02,0.01719 -0.0219,0.0043 -0.005,0.0176 -0.0101,0.02568 -0.002,0.0039 -0.007,0.0058 -0.01,0.0087 -0.003,0.0027 -0.007,0.0058 -0.0101,0.0087 -0.0175,0.01533 -0.0177,0.01367 -0.0297,0.03421 -0.003,0.0058 -0.009,0.01098 -0.0101,0.01719 -0.002,0.0085 0.003,0.0174 0,0.02566 -10e-4,0.0039 -0.007,0.0054 -0.0101,0.0087 -0.004,0.0054 -0.007,0.0116 -0.0101,0.01719 -0.003,0.0058 -0.008,0.01118 -0.0101,0.01719 -0.001,0.0027 0.001,0.006 0,0.0087 -0.002,0.0039 -0.008,0.005 -0.0101,0.0087 -0.004,0.0068 0.004,0.01885 0,0.02572 -0.002,0.0039 -0.008,0.005 -0.0101,0.0087 -0.003,0.005 0.003,0.01222 0,0.01719 -0.002,0.0039 -0.007,0.0054 -0.0101,0.0087 -0.0359,0.06207 0.0105,-0.01367 -0.02,0.02568 -0.024,0.03109 0.003,0.0062 -0.02,0.02568 -0.006,0.005 -0.0374,0.03026 -0.0397,0.03421 -0.001,0.0027 0.001,0.006 0,0.0087 -0.003,0.0058 -0.007,0.0116 -0.0101,0.01719 0,0.0027 10e-4,0.006 0,0.0087 -0.003,0.0062 -0.007,0.01139 -0.0101,0.01719 -0.004,0.0085 -0.007,0.01719 -0.0101,0.02568 -0.003,0.0087 -0.008,0.01677 -0.0101,0.02572 -10e-4,0.0056 0.002,0.0118 0,0.01719 -10e-4,0.0039 -0.008,0.005 -0.0101,0.0087 -0.002,0.0054 0.002,0.0118 0,0.01719 -0.001,0.0039 -0.008,0.005 -0.0101,0.0087 -0.001,0.0027 10e-4,0.006 0,0.0087 -0.002,0.0039 -0.008,0.005 -0.0101,0.0087 -10e-4,0.0027 0,0.0058 0,0.0087 -0.003,0.0027 -0.008,0.005 -0.0101,0.0087 -0.001,0.0027 10e-4,0.006 0,0.0087 -0.004,0.0072 -0.0157,0.0099 -0.02,0.01719 -0.001,0.0027 10e-4,0.006 0,0.0087 -0.002,0.0039 -0.008,0.005 -0.0101,0.0087 -0.001,0.0027 0.001,0.006 0,0.0087 -0.002,0.0039 -0.008,0.005 -0.0101,0.0087 -0.004,0.0068 0.004,0.01885 0,0.02566 -0.002,0.0039 -0.008,0.005 -0.0101,0.0087 -10e-4,0.0027 0.001,0.006 0,0.0087 -0.002,0.0039 -0.008,0.005 -0.0101,0.0087 -0.001,0.0027 0.001,0.006 0,0.0087 -0.002,0.0039 -0.008,0.005 -0.0101,0.0087 -10e-4,0.0027 0.001,0.006 0,0.0087 -0.002,0.0039 -0.008,0.005 -0.0101,0.0087 -0.001,0.0027 0.001,0.006 0,0.0087 -0.033,0.02837 0.004,-0.0081 -0.0101,0.01719 -0.002,0.0039 -0.008,0.005 -0.0101,0.0087 -0.003,0.005 0.003,0.01222 0,0.01719 -0.002,0.0039 -0.008,0.005 -0.0101,0.0087 -0.003,0.005 0.003,0.01222 0,0.01719 -0.002,0.0039 -0.008,0.005 -0.0101,0.0087 -0.003,0.0056 0.003,0.04604 0,0.05136 -0.006,0.01035 -0.0238,0.01532 -0.0298,0.02572 -0.001,0.0027 0.001,0.006 0,0.0087 -0.001,0.0023 -0.0272,0.02452 -0.0297,0.02568 -0.003,0.0011 -0.008,-0.0023 -0.0101,0 -0.003,0.0023 0.003,0.0066 0,0.0087 -0.003,0.0023 -0.007,-0.0011 -0.0101,0 -0.004,0.0016 -0.007,0.0058 -0.0101,0.0087 -0.003,0.0027 -0.007,0.0058 -0.0101,0.0087"
       style="fill:#ffb380;stroke:#ffb380;stroke-width:0.36416712;stroke-linecap:butt;stroke-linejoin:miter;stroke-miterlimit:4;stroke-dasharray:none;stroke-opacity:1" />
    <path
       id="path882"
       d="m 109.39144,27.58144 c -0.0163,0.0174 -0.0324,0.03456 -0.0487,0.0519 -0.003,0.0027 -0.006,0.005 -0.008,0.0087 -10e-4,0.0027 0.002,0.0066 0,0.0087 -0.002,0.0023 -0.006,-0.0023 -0.008,0 -0.004,0.0039 0.004,0.01325 0,0.0174 -0.002,0.0023 -0.006,-0.0023 -0.008,0 -0.002,0.0023 10e-4,0.006 0,0.0087 -0.002,0.0039 -0.006,0.005 -0.008,0.0087 -10e-4,0.0027 0.001,0.006 0,0.0087 -0.004,0.0072 -0.0121,0.01056 -0.0163,0.0174 -0.0274,0.04368 -6e-5,1.96e-4 -0.008,0.02597 0.005,0.01574 -0.0132,0.01615 -0.0163,0.02593 -0.002,0.0054 0.001,0.0116 0,0.0174 -0.002,0.0089 -0.006,0.01719 -0.008,0.02591 -5.2e-4,0.0027 0.001,0.006 0,0.0087 -0.002,0.0062 -0.007,0.01098 -0.008,0.0174 -0.002,0.0056 0.002,0.0118 0,0.0174 -0.001,0.0039 -0.007,0.005 -0.008,0.0087 -0.002,0.0054 0.002,0.01181 0,0.0174 0.005,0.01574 -0.0132,0.01615 -0.0163,0.02591 -0.002,0.0054 0.002,0.0118 0,0.0174 -0.003,0.0077 -0.0121,0.01056 -0.0163,0.0174 -0.004,0.0054 -0.005,0.01201 -0.008,0.0174 -0.004,0.0068 -0.0128,0.0099 -0.0163,0.0174 -0.001,0.0027 0.001,0.006 0,0.0087 -0.002,0.0039 -0.006,0.0054 -0.008,0.0087 -0.004,0.0054 -0.005,0.01201 -0.008,0.0174 -0.004,0.0068 -0.0128,0.0099 -0.0163,0.0174 -0.001,0.0027 10e-4,0.006 0,0.0087 -0.023,0.04898 0.003,-0.01284 -0.008,0.03456 -0.002,0.0062 -0.005,0.0116 -0.008,0.0174 -0.003,0.0058 -0.005,0.01201 -0.008,0.0174 -0.002,0.0033 -0.006,0.0054 -0.008,0.0087 -0.004,0.0054 -0.005,0.0116 -0.008,0.0174 -0.003,0.0058 -0.006,0.01139 -0.008,0.0174 -0.003,0.0085 -0.005,0.0174 -0.008,0.02591 -0.002,0.006 -0.005,0.0116 -0.008,0.0174 -0.003,0.0087 -0.005,0.0174 -0.008,0.02597 -0.005,0.01201 -0.0117,0.02263 -0.0163,0.03456 -0.003,0.0085 -0.005,0.0174 -0.008,0.02593 -0.008,0.02191 -0.0242,0.03862 -0.0324,0.06053 -0.003,0.0085 -0.005,0.0174 -0.008,0.02593 -0.002,0.006 -0.006,0.01139 -0.008,0.0174 -0.003,0.0085 -0.004,0.01781 -0.008,0.02597 -0.019,0.04061 -0.0122,0.01098 -0.0243,0.04324 -0.006,0.01698 -0.0109,0.03456 -0.0163,0.0519 -0.003,0.0087 -0.004,0.01781 -0.008,0.02593 -0.004,0.0093 -0.0118,0.01657 -0.0163,0.02591 -0.004,0.0081 -0.005,0.0174 -0.008,0.02593 -0.002,0.006 -0.006,0.01139 -0.008,0.0174 -0.003,0.0085 -0.005,0.0174 -0.008,0.02591 -0.002,0.006 -0.005,0.0116 -0.008,0.0174 -0.003,0.0058 -0.005,0.01201 -0.008,0.0174 -0.002,0.0033 -0.006,0.0054 -0.008,0.0087 -0.004,0.0054 -0.005,0.01201 -0.008,0.0174 -0.004,0.0068 -0.0128,0.0099 -0.0163,0.0174 -0.001,0.0027 10e-4,0.006 0,0.0087 -0.004,0.0072 -0.0128,0.0099 -0.0163,0.0174 -0.001,0.0027 0.001,0.006 0,0.0087 -0.004,0.0072 -0.0128,0.0099 -0.0163,0.0174 -0.001,0.0027 0.002,0.0066 0,0.0087 -0.002,0.0023 -0.006,-0.0011 -0.008,0 -0.0101,0.0054 -0.008,0.0083 -0.008,0.0174 0,0.0027 0.001,0.006 0,0.0087 -10e-4,0.0023 -0.0222,0.02477 -0.0243,0.02593 -0.003,0.0011 -0.006,-0.0011 -0.008,0 -0.004,0.0023 -0.02,0.02137 -0.0243,0.02591 -0.008,0.0087 -0.0163,0.0174 -0.0244,0.02593 -0.003,0.0027 -0.005,0.0064 -0.008,0.0087 -0.005,0.0039 -0.0113,0.005 -0.0163,0.0087 -0.006,0.0043 -0.0109,0.0116 -0.0163,0.0174 -0.008,0.0087 -0.0163,0.0174 -0.0243,0.02593 -0.005,0.005 -0.0306,0.03057 -0.0325,0.03456 -0.001,0.0027 0.001,0.006 0,0.0087 -0.002,0.0039 -0.0277,0.02953 -0.0324,0.03456 -0.006,0.0068 -0.038,0.03775 -0.0406,0.04324 -0.001,0.0027 10e-4,0.006 0,0.0087 -0.002,0.0039 -0.0277,0.02953 -0.0324,0.03456 -0.003,0.0027 -0.006,0.005 -0.008,0.0087 -0.001,0.0027 0.001,0.006 0,0.0087 -0.004,0.0072 -0.0128,0.0099 -0.0163,0.0174 -0.001,0.0027 0.002,0.0066 0,0.0087 -0.002,0.0023 -0.006,-0.0023 -0.008,0 -0.002,0.0023 10e-4,0.006 0,0.0087 -0.002,0.0039 -0.006,0.005 -0.008,0.0087 -0.004,0.0072 0.003,0.0145 0.008,0.0174 0.003,0.0011 0.006,-0.0023 0.008,0 3.7e-4,3.89e-4 0,0.03918 0,0.04324 0,0.01657 -0.004,0.01346 0.008,0.02597 0.003,0.0027 0.005,0.0116 0.008,0.0087 0.006,-0.0064 0.005,-0.0176 0.008,-0.02593 0.005,-0.0118 0.0121,-0.02251 0.0163,-0.03456 0.004,-0.01118 0.003,-0.02394 0.008,-0.03456 0.009,-0.01864 0.0226,-0.03392 0.0324,-0.0519 0.0873,-0.159483 -0.0336,0.04515 0.0487,-0.09514 0.005,-0.0089 0.0124,-0.01636 0.0163,-0.02593 0.005,-0.01098 0.003,-0.02394 0.008,-0.03456 0.006,-0.01284 0.0189,-0.02143 0.0243,-0.03458 0.006,-0.01346 0.004,-0.02943 0.008,-0.04322 0.01,-0.02833 0.0339,-0.06888 0.0487,-0.09514 0.008,-0.0145 0.0155,-0.02926 0.0243,-0.04324 0.008,-0.01201 0.0169,-0.02257 0.0243,-0.03456 0.009,-0.01387 0.0167,-0.02854 0.0243,-0.04324 0.006,-0.01118 0.009,-0.02411 0.0163,-0.03456 0.007,-0.0099 0.0187,-0.01533 0.0243,-0.02593 0.006,-0.01036 0.005,-0.02317 0.008,-0.03456 0.003,-0.0087 0.006,-0.01719 0.008,-0.02593 0.003,-0.01139 0.003,-0.02427 0.008,-0.03456 0.0334,-0.06234 0.0161,0.0089 0.0406,-0.0519 0.005,-0.01098 0.005,-0.02334 0.008,-0.03458 0.002,-0.0062 0.005,-0.0116 0.008,-0.0174 0.003,-0.0058 0.005,-0.01201 0.008,-0.0174 0.002,-0.0033 0.006,-0.0054 0.008,-0.0087 0.004,-0.0054 0.005,-0.01201 0.008,-0.0174 0.002,-0.0033 0.006,-0.0054 0.008,-0.0087 0.004,-0.0054 0.005,-0.01201 0.008,-0.0174 0.005,-0.0079 0.0208,-0.01822 0.0243,-0.02593 0.004,-0.0081 0.005,-0.0174 0.008,-0.02593 0.006,-0.01864 0.007,-0.02734 0.0163,-0.04324 0.0465,-0.07435 -0.009,0.01967 0.0243,-0.0519 0.004,-0.0093 0.0119,-0.01657 0.0163,-0.02591 0.004,-0.0081 0.005,-0.0174 0.008,-0.02593 0.003,-0.0087 0.005,-0.0174 0.008,-0.02597 0.0109,-0.03458 0.0217,-0.06919 0.0324,-0.103775 0.005,-0.0174 0.01,-0.03496 0.0163,-0.0519 0.005,-0.01201 0.0134,-0.02208 0.0163,-0.03456 0.002,-0.0056 -0.002,-0.0118 0,-0.0174 0.001,-0.0039 0.007,-0.005 0.008,-0.0087 0.002,-0.0054 -0.002,-0.0118 0,-0.0174 0.002,-0.0062 0.007,-0.01098 0.008,-0.0174 0.002,-0.0056 -0.002,-0.0118 0,-0.0174 0.002,-0.0062 0.005,-0.0116 0.008,-0.0174 0.008,-0.0174 0.0163,-0.03458 0.0243,-0.0519 0.005,-0.0116 0.0117,-0.02264 0.0163,-0.03458 0.003,-0.0085 0.004,-0.01781 0.008,-0.02591 0.002,-0.0039 0.006,-0.0054 0.008,-0.0087 0.0179,-0.0043 0.004,-0.01781 0.008,-0.02593 0.002,-0.0039 0.006,-0.005 0.008,-0.0087 0.003,-0.005 -0.004,-0.02137 0,-0.0174 0.005,0.0056 0.0156,0.03918 0.0163,0.04324 0.002,0.0085 0,0.0174 0,0.02597 0,0.0116 0,0.02307 0,0.03456 0,0.0087 10e-4,0.0174 0,0.02593 -0.002,0.0118 -0.007,0.0228 -0.008,0.03456 -0.002,0.01429 0.002,0.02893 0,0.04324 -0.003,0.03106 -0.015,0.04784 -0.0243,0.07785 -0.0122,0.03935 -0.0107,0.08224 -0.0243,0.121067 -0.004,0.01201 -0.0115,0.02274 -0.0163,0.03456 -0.007,0.01678 -0.009,0.03556 -0.0163,0.0519 -0.004,0.0072 -0.0128,0.0099 -0.0163,0.0174 -0.001,0.0027 0.001,0.006 0,0.0087 -0.0196,0.06265 0.003,-0.01367 -0.0163,0.02597 -0.001,0.0027 0.001,0.006 0,0.0087 -0.002,0.0039 -0.005,0.0058 -0.008,0.0087 -0.0103,0.01098 -0.01,0.0085 -0.0163,0.02593 -0.01,0.02537 -0.0148,0.0525 -0.0244,0.07785 -0.002,0.006 -0.006,0.01139 -0.008,0.0174 -0.003,0.0085 -0.005,0.0174 -0.008,0.02597 -0.002,0.006 -0.005,0.0116 -0.008,0.0174 -0.003,0.0058 -0.005,0.01201 -0.008,0.0174 -0.002,0.0033 -0.006,0.005 -0.008,0.0087 -0.004,0.0081 -0.005,0.0174 -0.008,0.02593 -0.005,0.01201 -0.0109,0.02307 -0.0163,0.03456 -0.005,0.0116 -0.0101,0.02357 -0.0163,0.03456 -0.005,0.0089 -0.0109,0.0174 -0.0163,0.02593 -0.005,0.0087 -0.0101,0.01781 -0.0163,0.02597 -0.01,0.01263 -0.0233,0.02154 -0.0325,0.03456 -0.007,0.01036 -0.009,0.02427 -0.0163,0.03456 -0.005,0.0064 -0.0117,0.01077 -0.0163,0.0174 -0.0136,0.01926 -0.0161,0.04728 -0.0243,0.06919 -0.002,0.006 -0.006,0.01139 -0.008,0.0174 -0.01,0.0252 -0.0163,0.0521 -0.0243,0.07783 -0.003,0.0087 -0.005,0.0174 -0.008,0.02591 -0.003,0.0087 -0.007,0.01698 -0.008,0.02593 -0.002,0.0085 0.002,0.0174 0,0.02593 -0.001,0.0062 -0.005,0.0116 -0.008,0.01739 -0.003,0.0058 -0.005,0.01201 -0.008,0.0174 -0.004,0.0068 -0.0128,0.0099 -0.0163,0.0174 -10e-4,0.0027 0.001,0.006 0,0.0087 -0.002,0.0039 -0.0277,0.02953 -0.0324,0.03458 -0.003,0.0027 -0.006,0.005 -0.008,0.0087 -0.001,0.0027 0.002,0.0066 0,0.0087 -0.0109,0.0116 -0.008,-0.0145 -0.008,0.0087"
       style="fill:none;stroke:#ff7f29;stroke-width:0.53081983px;stroke-linecap:butt;stroke-linejoin:miter;stroke-opacity:0" />
    <path
       id="path884"
       d="m 109.33458,27.642035 c -0.0266,0.0085 -0.003,0.02949 -0.01,0.04252 -0.003,0.005 -0.009,0.007 -0.0115,0.01222 -0.004,0.0072 0.005,0.01864 0,0.02444 -0.003,0.0027 -0.009,-0.0027 -0.0115,0 -0.006,0.0062 0.006,0.03057 0,0.03672 -0.0238,0.02531 0.001,-0.03869 -0.0229,0.01222 -0.002,0.0039 0.002,0.0087 0,0.01222 -0.003,0.005 -0.009,0.0075 -0.0115,0.01222 -0.005,0.0077 -0.007,0.01677 -0.0115,0.02444 -0.003,0.005 -0.009,0.007 -0.0115,0.01222 -0.002,0.0039 0.002,0.0087 0,0.01222 -0.003,0.005 -0.008,0.0081 -0.0115,0.01222 -0.004,0.0039 -0.008,0.0081 -0.0115,0.01222 -0.0115,0.01222 -0.0229,0.02444 -0.0345,0.03672 -0.008,0.0081 -0.0169,0.01491 -0.0229,0.02444 -0.005,0.0077 -0.007,0.01677 -0.0115,0.02444 -0.006,0.0095 -0.0169,0.01491 -0.0229,0.02444 -0.005,0.0077 -0.007,0.01677 -0.0115,0.02444 -0.0351,0.05604 0.0187,-0.052 -0.0229,0.03672 -0.008,0.01636 -0.0134,0.03376 -0.0229,0.04894 -0.006,0.0095 -0.0169,0.01491 -0.0229,0.02444 -0.005,0.0077 -0.007,0.01677 -0.0115,0.02444 -0.003,0.005 -0.009,0.0075 -0.0115,0.01222 -0.005,0.0077 -0.007,0.01677 -0.0115,0.02444 -0.003,0.005 -0.009,0.007 -0.0115,0.01222 -0.002,0.0039 0.002,0.0087 0,0.01222 -0.003,0.005 -0.009,0.0075 -0.0115,0.01222 -0.0416,0.08868 0.012,-0.01926 -0.0229,0.03672 -0.005,0.0079 -0.0326,0.06544 -0.0345,0.07337 -0.002,0.0079 0.002,0.01636 0,0.02444 -0.006,0.03216 -0.0233,0.05604 -0.0345,0.08561 -0.0462,0.123117 0.009,-0.02597 -0.0115,0.06115 -0.0138,0.05906 -0.005,-5.49e-4 -0.0229,0.03672 -0.002,0.0039 0.001,0.0083 0,0.01222 -0.003,0.0087 -0.009,0.01574 -0.0115,0.02444 -0.004,0.0116 0.004,0.0251 0,0.03672 -0.002,0.0054 -0.009,0.007 -0.0115,0.01222 -0.002,0.0039 0,0.0081 0,0.01222 0,0.0081 0.003,0.01677 0,0.02444 -0.002,0.0054 -0.009,0.007 -0.0115,0.01222 -0.002,0.0039 0.002,0.0087 0,0.01222 -0.003,0.005 -0.009,0.007 -0.0115,0.01222 -0.004,0.0072 0.004,0.01719 0,0.02444 -0.003,0.005 -0.009,0.007 -0.0115,0.01222 -0.002,0.0039 0.002,0.0087 0,0.01222 -0.003,0.005 -0.008,0.0081 -0.0115,0.01222 -0.009,0.0095 -0.0278,0.02614 -0.0345,0.03672 -0.0387,0.0618 -9e-5,2.86e-4 -0.0115,0.03672 -0.003,0.0087 -0.008,0.01636 -0.0115,0.02444 -0.004,0.0081 -0.007,0.01677 -0.0115,0.02444 -0.003,0.005 -0.008,0.0081 -0.0115,0.01222 -0.0115,0.01222 -0.0229,0.02444 -0.0345,0.03672 -0.004,0.0039 -0.009,0.007 -0.0115,0.01222 -0.004,0.0072 0.004,0.01719 0,0.02444 -0.003,0.005 -0.009,0.007 -0.0115,0.01222 -0.004,0.0072 0.004,0.01719 0,0.02444 -0.003,0.005 -0.009,0.007 -0.0115,0.01222 -0.005,0.0097 0.005,0.0269 0,0.03672 -0.0142,0.03024 -0.0115,-0.0043 -0.0115,0.02444 0,0.0056 0.002,0.03299 0,0.03672 -0.003,0.005 -0.009,0.007 -0.0115,0.01222 -0.002,0.0039 0.002,0.0087 0,0.01222 -0.003,0.005 -0.009,0.007 -0.0115,0.01222 -0.004,0.0072 0.004,0.01719 0,0.02444 -0.003,0.005 -0.009,0.007 -0.0115,0.01222 -0.002,0.005 0.003,0.03419 0,0.03672 -0.003,0.0027 -0.009,-0.0027 -0.0115,0 -0.003,0.0027 0.004,0.01222 0,0.01222 -0.004,0 -0.002,-0.0087 0,-0.01222 0.006,-0.01325 0.0175,-0.02317 0.0229,-0.03672 0.006,-0.01553 0.002,-0.03523 0.0115,-0.04894 0.0111,-0.01657 0.0335,-0.02121 0.0459,-0.03672 0.0111,-0.01387 0.013,-0.03409 0.0229,-0.04894 0.009,-0.01408 0.024,-0.0234 0.0345,-0.03672 0.0411,-0.0526 0.009,-0.01822 0.0345,-0.07337 0.0232,-0.04937 0.0236,-0.02827 0.0574,-0.07339 0.0107,-0.01429 0.0134,-0.03376 0.023,-0.04894 0.005,-0.0081 0.0323,-0.03009 0.0345,-0.03672 0.003,-0.0077 -0.004,-0.01719 0,-0.02444 0.002,-0.0039 0.009,0.0027 0.0115,0 0.003,-0.0027 -0.003,-0.04597 0,-0.04894 0.003,-0.0027 0.009,0.0027 0.0115,0 0.003,-0.0027 -0.002,-0.0087 0,-0.01222 0.005,-0.01035 0.0181,-0.01408 0.023,-0.02444 0.002,-0.0039 -0.002,-0.0087 0,-0.01222 0.003,-0.005 0.009,-0.0075 0.0115,-0.01222 0.005,-0.0077 0.007,-0.01657 0.0115,-0.02444 0.007,-0.01263 0.0167,-0.02357 0.0229,-0.03672 0.005,-0.0116 0.005,-0.02564 0.0115,-0.03672 0.006,-0.0099 0.0165,-0.01533 0.023,-0.02444 0.005,-0.0072 0.008,-0.01636 0.0115,-0.02444 0.0269,-0.05737 -0.005,0.0145 0.0229,-0.06116 0.003,-0.0085 0.008,-0.01595 0.0115,-0.02444 0.005,-0.01201 0.007,-0.02471 0.0115,-0.03672 0.003,-0.0085 0.01,-0.01553 0.0115,-0.02444 0.002,-0.01201 -0.003,-0.02483 0,-0.03672 0.002,-0.0056 0.009,-0.007 0.0115,-0.01222 0.005,-0.0116 0.008,-0.02444 0.0115,-0.03672 0.008,-0.02444 0.014,-0.04943 0.0229,-0.07339 0.0208,-0.05542 0.001,-0.0016 0.0229,-0.03672 0.005,-0.0077 0.007,-0.01677 0.0115,-0.02444 0.003,-0.005 0.009,-0.007 0.0115,-0.01222 0.002,-0.0039 -0.002,-0.0087 0,-0.01222 0.003,-0.005 0.009,-0.007 0.0115,-0.01222 0.004,-0.0072 -0.003,-0.01677 0,-0.02444 0.003,-0.0087 0.009,-0.01574 0.0115,-0.02444 10e-4,-0.0039 -0.001,-0.0083 0,-0.01222 0.0138,-0.04432 0.005,-0.0087 0.0229,-0.03672 0.005,-0.0077 0.007,-0.01677 0.0115,-0.02444 0.003,-0.005 0.01,-0.0068 0.0115,-0.01222 0.003,-0.0077 -0.003,-0.01677 0,-0.02444 0.002,-0.0054 0.009,-0.007 0.0115,-0.01222 0.004,-0.0072 -0.004,-0.01719 0,-0.02444 0.003,-0.005 0.009,-0.007 0.0115,-0.01222 0.002,-0.0039 -0.002,-0.0087 0,-0.01222 0.003,-0.005 0.009,-0.007 0.0115,-0.01222 0.002,-0.0039 -0.002,-0.0087 0,-0.01222 0.003,-0.005 0.009,-0.007 0.0115,-0.01222 0.002,-0.0039 -0.002,-0.0087 0,-0.01222 0.005,-0.01035 0.0169,-0.01491 0.0229,-0.02444 0.005,-0.0077 0.007,-0.01677 0.0115,-0.02444 0.003,-0.005 0.009,-0.0075 0.0115,-0.01222 0.005,-0.0077 0.007,-0.01677 0.0115,-0.02444 0.006,-0.0095 0.0181,-0.01408 0.0229,-0.02444 0.002,-0.0039 -0.002,-0.0087 0,-0.01222 0.002,-0.0039 0.0202,-0.01429 0.0115,-0.02444 -0.0103,-0.01201 -0.0243,-0.02009 -0.0365,-0.0303 z"
       style="fill:#ffb380;stroke:#ffb380;stroke-width:0.53081983px;stroke-linecap:butt;stroke-linejoin:miter;stroke-opacity:0.99523806" />
    <path
       id="path886"
       d="m 109.49287,27.420785 c -0.0296,-0.02526 -0.0449,-0.04707 -0.0411,-0.05861 0.004,-0.01008 0.0141,-0.05414 0.024,-0.09784 0.0176,-0.07804 0.0834,-0.236571 0.13064,-0.314877 0.0195,-0.03233 0.0209,-0.04093 0.008,-0.04636 -0.0107,-0.0044 -0.0146,-0.01901 -0.0113,-0.04296 0.003,-0.02 -0.002,-0.04455 -0.009,-0.05457 -0.009,-0.01178 -0.01,-0.01825 -0.002,-0.01825 0.0173,0 0.0708,0.0269 0.0708,0.03562 -3.7e-4,0.05699 -0.10144,0.614405 -0.11395,0.628427 -0.005,0.0055 -0.0299,-0.0084 -0.0558,-0.03057 z"
       style="opacity:1;fill:#ff7f29;fill-opacity:0.56078401;fill-rule:nonzero;stroke:#ffb380;stroke-width:0.0124047;stroke-linejoin:bevel;stroke-miterlimit:4;stroke-dasharray:none;stroke-opacity:0.99523806;paint-order:stroke fill markers" />
    <path
       transform="scale(0.26458333)"
       id="path888"
       d=""
       style="opacity:1;fill:#ff7f29;fill-opacity:0.56078401;fill-rule:nonzero;stroke:#ffb380;stroke-width:0.02336895;stroke-linejoin:bevel;stroke-miterlimit:4;stroke-dasharray:none;stroke-opacity:0.99523806;paint-order:stroke fill markers" />
    <path
       id="path890"
       d="m 109.03635,27.33037 c 0.0188,-0.07959 0.0743,-0.384585 0.0872,-0.478824 0.008,-0.0555 0.0159,-0.100902 0.0186,-0.100902 0.003,0 0.0306,0.01397 0.0622,0.03096 0.0554,0.02992 0.0568,0.03195 0.0398,0.05776 -0.01,0.01474 -0.0176,0.03567 -0.0176,0.04663 0,0.0109 -0.0103,0.02981 -0.0229,0.04197 -0.0127,0.01216 -0.0229,0.03255 -0.0229,0.04531 0,0.01277 -0.007,0.03803 -0.0158,0.0562 -0.009,0.01819 -0.0197,0.0578 -0.0244,0.08806 -0.009,0.06008 -0.0778,0.225536 -0.099,0.239541 -0.01,0.0062 -0.0109,-0.0011 -0.005,-0.02674 z"
       style="opacity:1;fill:#ff7f29;fill-opacity:0.56078389;fill-rule:nonzero;stroke:#ffb380;stroke-width:0.0124047;stroke-linejoin:bevel;stroke-miterlimit:4;stroke-dasharray:none;stroke-opacity:0.99523806;paint-order:stroke fill markers" />
    <path
       id="path892"
       d="m 109.4913,27.40193 -0.034,-0.03364 0.0287,-0.10345 c 0.0158,-0.0569 0.054,-0.157466 0.0851,-0.223481 0.0533,-0.113439 0.0558,-0.123198 0.0462,-0.177843 -0.006,-0.03178 -0.009,-0.05914 -0.007,-0.06076 0.002,-0.0016 0.0123,0.0044 0.0241,0.0137 0.0206,0.01605 0.0199,0.02471 -0.0216,0.259776 -0.0571,0.323851 -0.0647,0.359336 -0.0769,0.359336 -0.006,0 -0.0257,-0.01512 -0.0444,-0.03364 z"
       style="opacity:1;fill:#ff7f29;fill-opacity:0.56078389;fill-rule:nonzero;stroke:#ffb380;stroke-width:0.0124047;stroke-linejoin:bevel;stroke-miterlimit:4;stroke-dasharray:none;stroke-opacity:0.99523806;paint-order:stroke fill markers" />
    <path
       id="path894"
       d="m 109.49643,27.396046 -0.0321,-0.02948 0.0366,-0.11533 c 0.0418,-0.132052 0.1135,-0.297134 0.11497,-0.264822 0.002,0.02997 -0.0678,0.402162 -0.0785,0.422578 -0.007,0.01299 -0.0156,0.01019 -0.0408,-0.01293 z"
       style="opacity:1;fill:#ff7f29;fill-opacity:0.56078389;fill-rule:nonzero;stroke:#ffb380;stroke-width:0.0124047;stroke-linejoin:bevel;stroke-miterlimit:4;stroke-dasharray:none;stroke-opacity:0.99523806;paint-order:stroke fill markers" />
    <path
       id="path896"
       d="m 108.08544,29.054387 c 0.019,0 0.0382,0 0.0574,0 0.004,0 0.008,-0.0011 0.0115,0 0.0101,0.0039 0.0598,0.03024 0.0689,0.03672 0.009,0.0064 0.0132,0.01926 0.0229,0.02444 0.004,0.0016 0.008,-0.0016 0.0115,0 0.01,0.005 0.0132,0.01926 0.023,0.02444 0.004,0.0016 0.008,-0.0016 0.0115,0 0.01,0.005 0.0132,0.01926 0.0229,0.02444 0.004,0.0016 0.009,-0.0027 0.0115,0 0.003,0.0027 -0.003,0.0093 0,0.01222 0.005,0.0058 0.0175,-0.0058 0.0229,0 0.003,0.0027 -0.003,0.0093 0,0.01222 0.003,0.0027 0.009,-0.0027 0.0115,0 0.003,0.0027 -0.003,0.0093 0,0.01222 0.003,0.0027 0.008,-0.0016 0.0115,0 0.0101,0.0054 0.024,0.02926 0.0345,0.03672 0.0212,0.01512 0.0477,0.02164 0.0689,0.03672 0.0105,0.0075 0.0243,0.03129 0.0345,0.03672 0.004,0.0016 0.008,-0.0016 0.0115,0 0.0478,0.02543 -0.0122,-0.0011 0.0115,0.02444 0.003,0.0027 0.008,-0.0016 0.0115,0 0.005,0.0027 0.008,0.0081 0.0115,0.01222 0.004,0.0039 0.009,0.0075 0.0115,0.01222 0.005,0.0077 0.007,0.01677 0.0115,0.02444 0.006,0.0095 0.0181,0.01408 0.023,0.02444 0.002,0.0039 -0.002,0.0087 0,0.01222 0.003,0.0064 0.0284,0.03024 0.0345,0.03672 0.0153,0.01636 0.0306,0.0326 0.0459,0.04894 0.008,0.0081 0.014,0.01802 0.0229,0.02444 0.007,0.005 0.0157,0.0072 0.0229,0.01222 0.005,0.0033 0.008,0.0081 0.0115,0.01222 0.004,0.0039 0.009,0.007 0.0115,0.01222 0.002,0.0039 -0.003,0.0093 0,0.01222 0.003,0.0027 0.008,0 0.0115,0"
       style="fill:#ffb380;stroke:#ffb380;stroke-width:0.53081983px;stroke-linecap:butt;stroke-linejoin:miter;stroke-opacity:1" />
    <path
       id="path902"
       d="m 108.85451,29.347928 c -0.008,-0.01636 -0.0154,-0.0326 -0.0229,-0.04894 -0.004,-0.01222 -0.006,-0.02514 -0.0115,-0.03672 -0.0541,-0.115372 -0.002,0.0027 -0.0345,-0.04894 -0.01,-0.01512 -0.0126,-0.03436 -0.0229,-0.04894 -0.003,-0.0039 -0.0502,-0.05606 -0.0574,-0.06115 -0.007,-0.005 -0.0159,-0.0072 -0.0229,-0.01222 -0.005,-0.0033 -0.007,-0.0091 -0.0115,-0.01222 -0.0142,-0.01015 -0.0306,-0.01636 -0.0459,-0.02444 -0.0153,-0.0081 -0.03,-0.0176 -0.0459,-0.02444 -0.0113,-0.005 -0.0236,-0.0064 -0.0345,-0.01222 -0.035,-0.01864 0.021,-0.0097 -0.0345,-0.02444 -0.007,-0.0023 -0.0157,0.0027 -0.0229,0 -0.005,-0.0016 -0.007,-0.0091 -0.0115,-0.01222 -0.007,-0.005 -0.0159,-0.0072 -0.0229,-0.01222 -0.01,-0.007 -0.0255,-0.02713 -0.0345,-0.03672 -0.004,-0.0039 -0.007,-0.0097 -0.0115,-0.01222 -0.004,-0.0016 -0.008,0.0016 -0.0115,0 -0.005,-0.0027 -0.007,-0.0097 -0.0115,-0.01222 -0.004,-0.0016 -0.008,0.0016 -0.0115,0 -0.005,-0.0027 -0.007,-0.0097 -0.0115,-0.01222 -0.007,-0.0039 -0.0161,0.0039 -0.023,0 -0.005,-0.0027 -0.007,-0.0097 -0.0115,-0.01222 -0.003,-0.0016 -0.0607,0 -0.0689,0 -0.005,0 -0.0655,-0.0016 -0.0689,0 -0.005,0.0027 -0.007,0.0097 -0.0115,0.01222 -0.007,0.0039 -0.0161,-0.0039 -0.0229,0 -0.0284,0.01512 0.004,0.01222 -0.0229,0.01222 -0.005,0 -0.031,-0.0016 -0.0345,0 -0.005,0.0027 -0.007,0.0097 -0.0115,0.01222 -0.004,0.0016 -0.008,-0.0016 -0.0115,0 -0.005,0.0027 -0.007,0.0097 -0.0115,0.01222 -0.004,0.0016 -0.008,-0.0016 -0.0115,0 -0.005,0.0027 -0.007,0.0097 -0.0115,0.01222 -0.005,0.0027 -0.0407,-0.0016 -0.0459,0 -0.005,0.0016 -0.007,0.0097 -0.0115,0.01222 -0.005,0.0023 -0.0321,-0.0027 -0.0345,0 -0.002,0.0016 -0.001,0.03419 0,0.03672 0.003,0.005 0.009,0.007 0.0115,0.01222 0.004,0.0072 -0.004,0.01719 0,0.02444 0.003,0.005 0.009,0.007 0.0115,0.01222 0.002,0.0039 0,0.0081 0,0.01222 0.004,0.0039 0.009,0.0075 0.0115,0.01222 0.005,0.0077 0.009,0.01574 0.0115,0.02444 0.001,0.0039 -0.003,0.0093 0,0.01222 0.003,0.0027 0.008,-0.0016 0.0115,0 0.005,0.0027 0.007,0.0097 0.0115,0.01222 0.004,0.0016 0.008,-0.0016 0.0115,0 0.005,0.0027 0.007,0.0097 0.0115,0.01222 0.004,0.0016 0.008,-0.0016 0.0115,0 0.005,0.0027 0.007,0.0097 0.0115,0.01222 0.004,0.0016 0.009,-0.0027 0.0115,0 0.003,0.0027 -0.003,0.0093 0,0.01222 0.005,0.0058 0.0161,-0.0039 0.0229,0 0.005,0.0027 0.007,0.0097 0.0115,0.01222 0.009,0.005 0.0252,-0.005 0.0345,0 0.005,0.0027 0.007,0.0097 0.0115,0.01222 0.009,0.005 0.0252,-0.005 0.0345,0 0.005,0.0027 0.007,0.0097 0.0115,0.01222 0.007,0.0039 0.0161,-0.0039 0.0229,0 0.005,0.0027 0.007,0.0097 0.0115,0.01222 0.004,0.0016 0.008,-0.0016 0.0115,0 0.005,0.0027 0.007,0.0091 0.0115,0.01222 0.007,0.005 0.0159,0.0072 0.023,0.01222 0.005,0.0033 0.006,0.01035 0.0115,0.01222 0.007,0.0027 0.0155,-0.0023 0.0229,0 0.008,0.0023 0.015,0.0089 0.0229,0.01222 0.0113,0.005 0.023,0.0081 0.0345,0.01222 0.0342,0.01222 0.0699,0.02247 0.10331,0.03672 0.0235,0.0099 0.0448,0.02816 0.0689,0.03672 0.004,0.0011 0.008,-0.0016 0.0115,0 0.005,0.0027 0.007,0.0097 0.0115,0.01222 0.004,0.0016 0.008,-0.0016 0.0115,0 0.005,0.0027 0.007,0.0097 0.0115,0.01222 0.004,0.0016 0.008,0 0.0115,0 0.008,0 0.0154,0 0.0229,0 0.0421,0 0.0842,0 0.12625,0 0.0503,0 0.0502,0.0033 0.1033,-0.01222 0.0678,-0.01967 0.0531,-0.0077 0.0803,-0.03672 0.004,-0.0039 0.009,-0.0075 0.0115,-0.01222 0.0228,-0.03649 0.005,-0.01118 0.0115,-0.04894 0.003,-0.01263 0.008,-0.02444 0.0115,-0.03672 0.008,-0.02437 0.0201,-0.06103 0.0229,-0.08561 0.002,-0.01615 -0.002,-0.0327 0,-0.04894 0.003,-0.02466 0.009,-0.04871 0.0115,-0.07339 0.004,-0.04059 -0.002,-0.08159 0,-0.122309 0.003,-0.06528 0.01,-0.130366 0.0115,-0.195683 0.003,-0.08965 0,-0.179384 0,-0.269075 0,-0.01636 0,-0.0326 0,-0.04894 0,-0.01222 -0.002,-0.0246 0,-0.03672 0.002,-0.01657 0.009,-0.03227 0.0115,-0.04894 0.002,-0.01201 -0.003,-0.02481 0,-0.03672 0.002,-0.0056 0.0101,-0.0066 0.0115,-0.01222 0.003,-0.01118 0,-0.06753 0,-0.08561 0,-0.03672 0,-0.07339 0,-0.110071 0,-0.01222 -0.002,-0.0246 0,-0.03672 0.002,-0.01263 0.009,-0.02404 0.0115,-0.03672 0.002,-0.0081 0,-0.01636 0,-0.02444 0,-0.0081 0.002,-0.01636 0,-0.02444 -0.003,-0.01263 -0.01,-0.024 -0.0115,-0.03672 -0.003,-0.02009 0,-0.04076 0,-0.06115 0,-0.0081 0,-0.01636 0,-0.02444 0,-0.01222 0.003,-0.02481 0,-0.03672 -0.002,-0.0056 -0.009,-0.007 -0.0115,-0.01222 -0.004,-0.0075 0.004,-0.06596 0,-0.07339 -0.003,-0.005 -0.009,-0.007 -0.0115,-0.01222 -0.004,-0.0077 0.004,-0.04125 0,-0.04894 -0.003,-0.005 -0.009,-0.007 -0.0115,-0.01222 -0.004,-0.0072 0.005,-0.01864 0,-0.02444 -0.003,-0.0027 -0.009,0.0027 -0.0115,0 -0.003,-0.0027 0.004,-0.01222 0,-0.01222 -0.005,0 -0.007,0.0097 -0.0115,0.01222 -0.004,0.0016 -0.008,0 -0.0115,0 -0.0115,0.0203 -0.0221,0.04138 -0.0345,0.06115 -0.002,0.0039 -0.053,0.0731 -0.0574,0.08561 -0.007,0.01947 -0.005,0.04171 -0.0115,0.06116 -0.005,0.01367 -0.0167,0.02357 -0.0229,0.03672 -0.0236,0.0503 -0.004,0.02191 -0.0115,0.07339 -0.002,0.01263 -0.009,0.02404 -0.0115,0.03672 -0.003,0.01367 0,0.03419 0,0.04894 0,0.0039 -0.003,0.0093 0,0.01222 0.003,0.0027 0.009,-0.0027 0.0115,0 0.003,0.0027 0,0.0081 0,0.01222 0,0.0039 0.003,0.0093 0,0.01222 -0.003,0.0027 -0.0115,0.0039 -0.0115,0 0,-0.0039 0.009,0.0033 0.0115,0 0.0103,-0.0145 0.0153,-0.0326 0.0229,-0.04894 0.0154,-0.03249 0.0372,-0.08244 0.0574,-0.110071 0.0132,-0.01822 0.0318,-0.03139 0.0459,-0.04894 0.009,-0.01118 0.0142,-0.02543 0.0229,-0.03672 0.0463,-0.05923 0.0274,-0.01098 0.0574,-0.08561 0.008,-0.01926 0.0107,-0.04368 0.0229,-0.06115 0.006,-0.0091 0.0153,-0.01636 0.023,-0.02444 0.004,-0.0039 0.009,-0.007 0.0115,-0.01222 0.002,-0.0039 0.003,-0.0145 0,-0.01222 -0.0136,0.0095 -0.022,0.02564 -0.0345,0.03672 -0.0107,0.0095 -0.024,0.01491 -0.0345,0.02444 -0.0246,0.02251 -0.0459,0.04894 -0.0689,0.07339 -0.0115,0.01222 -0.025,0.02263 -0.0345,0.03672 -0.01,0.01491 -0.0154,0.0326 -0.023,0.04894 -0.004,0.0081 -0.005,0.01802 -0.0115,0.02444 -0.014,0.01491 -0.0257,0.0058 -0.0345,0.02444 -0.002,0.0039 -0.003,0.0145 0,0.01222 0.0633,-0.04498 0.01,-0.02607 0.0574,-0.08561 0.0124,-0.01553 0.0345,-0.0203 0.0459,-0.03672 0.0122,-0.0176 0.0107,-0.04361 0.0229,-0.06115 0.0115,-0.01636 0.0348,-0.02009 0.0459,-0.03672 0.009,-0.01367 0.005,-0.03349 0.0115,-0.04894 0.0196,-0.04883 0.0218,-0.02071 0.0345,-0.06115 0.005,-0.01595 0.006,-0.03299 0.0115,-0.04894 0.003,-0.0087 0.009,-0.01574 0.0115,-0.02444 10e-4,-0.0039 -0.001,-0.0083 0,-0.01222 0.003,-0.0087 0.009,-0.01574 0.0115,-0.02444 0.003,-0.0079 0,-0.05113 0,-0.06115 0,-0.0203 0,-0.04076 0,-0.06115 0,-0.0081 0.003,-0.01677 0,-0.02444 -0.003,-0.0087 -0.009,-0.01574 -0.0115,-0.02444 -0.003,-0.0083 0,-0.06983 0,-0.08561 0,-0.0039 0,-0.0081 0,-0.01222 0,-0.0039 0.003,-0.0093 0,-0.01222 -0.003,-0.0027 -0.009,0.0027 -0.0115,0 -0.003,-0.0027 0,-0.0081 0,-0.01222 0,-0.0039 0,-0.0081 0,-0.01222 0,-0.0326 0,-0.06524 0,-0.09785 0,-0.02444 0,-0.04894 0,-0.07337 0,-0.0039 0,-0.0081 0,-0.01222 0,-0.0039 -0.002,-0.0087 0,-0.01222 0.003,-0.005 0.009,-0.007 0.0115,-0.01222 0.004,-0.0072 -0.004,-0.01719 0,-0.02444 0.003,-0.005 0.009,-0.007 0.0115,-0.01222 0.004,-0.0072 -0.004,-0.01719 0,-0.02444 0.005,-0.01036 0.0181,-0.01408 0.0229,-0.02444 0.004,-0.0072 -0.004,-0.01719 0,-0.02444 0.003,-0.005 0.009,-0.007 0.0115,-0.01222 0.002,-0.0033 0,-0.04252 0,-0.04894 0,-0.0039 -0.004,-0.01222 0,-0.01222 0.004,0 0.0165,0.02104 0.023,0.02444 0.004,0.0016 0.008,-0.0016 0.0115,0 0.01,0.005 0.0132,0.01926 0.0229,0.02444 0.007,0.0039 0.0175,-0.0058 0.0229,0 0.003,0.0027 -0.002,0.0087 0,0.01222 0.003,0.005 0.0296,0.03326 0.0345,0.03672 0.0142,0.01015 0.0322,0.01346 0.0459,0.02444 0.009,0.0068 0.0136,0.01843 0.023,0.02444 0.0103,0.0066 0.0232,0.0075 0.0345,0.01222 0.008,0.0033 0.0153,0.0081 0.0229,0.01222 0.008,0.0039 0.0148,0.0093 0.023,0.01222 0.007,0.0027 0.0175,-0.0058 0.0229,0 0.003,0.0027 -0.003,0.0093 0,0.01222 0.003,0.0027 0.009,-0.0027 0.0115,0 0.003,0.0027 -0.003,0.0093 0,0.01222 0.005,0.0058 0.0161,-0.0039 0.0229,0 0.005,0.0027 0.007,0.0097 0.0115,0.01222 0.004,0.0016 0.009,-0.0027 0.0115,0 0.003,0.0027 -0.002,0.0087 0,0.01222 0.003,0.0064 0.0284,0.03026 0.0345,0.03672 0.006,0.0064 0.0283,0.03342 0.0345,0.03672 0.004,0.0016 0.008,-0.0016 0.0115,0 0.005,0.0027 0.007,0.0097 0.0115,0.01222 0.004,0.0016 0.008,-0.0016 0.0115,0 0.005,0.0027 0.0392,0.04175 0.0459,0.04894 0.006,0.0064 0.0283,0.03343 0.0345,0.03672 0.007,0.0039 0.0161,-0.0039 0.0229,0 0.005,0.0027 0.007,0.0097 0.0115,0.01222 0.004,0.0016 0.009,-0.0027 0.0115,0 0.003,0.0027 -0.003,0.0093 0,0.01222 0.007,0.0072 0.0229,-0.01325 0.0229,0.01222 0,0.0054 -0.0417,0.03995 -0.0459,0.04894 -0.002,0.0039 10e-4,0.0083 0,0.01222 -0.003,0.0087 -0.008,0.01595 -0.0115,0.02444 -0.009,0.02394 -0.0154,0.04894 -0.0229,0.07339 -0.008,0.02444 -0.0153,0.04894 -0.0229,0.07339 -0.004,0.01222 -0.007,0.02483 -0.0115,0.03672 -0.007,0.01677 -0.0169,0.03183 -0.0229,0.04894 -0.006,0.01574 -0.008,0.0326 -0.0115,0.04894 -0.008,0.01636 -0.0169,0.03183 -0.0229,0.04894 -0.006,0.01574 -0.005,0.03359 -0.0115,0.04894 -0.009,0.0217 -0.0236,0.04038 -0.0345,0.06115 -0.008,0.01595 -0.0144,0.03309 -0.0229,0.04894 -0.007,0.01284 -0.0167,0.02357 -0.0229,0.03672 -0.005,0.0116 -0.006,0.02516 -0.0115,0.03672 -0.005,0.01036 -0.0181,0.01408 -0.0229,0.02444 -0.002,0.0039 0.001,0.01615 0,0.01222 -0.0181,-0.05745 -0.0115,-0.06463 -0.0115,-0.134528 0,-0.04488 0,-0.08969 0,-0.134549 0,-0.03672 0,-0.07339 0,-0.11007 0,-0.03672 -0.002,-0.07346 0,-0.11007 0.002,-0.02477 0.009,-0.04871 0.0115,-0.07337 0.006,-0.06625 -0.009,-0.05101 0.0115,-0.11007 0.006,-0.01698 0.0161,-0.03216 0.0229,-0.04894 0.005,-0.0118 0.007,-0.02471 0.0115,-0.03672 0.003,-0.0085 0.009,-0.01553 0.0115,-0.02444 0,-0.05569 -0.005,-5.49e-4 0.0115,-0.03672 0.002,-0.0039 -0.004,-0.01222 0,-0.01222 0.004,0 0.001,0.0083 0,0.01222 -0.003,0.0087 -0.009,0.01574 -0.0115,0.02444 -0.005,0.02009 -0.007,0.04088 -0.0115,0.06115 -0.0154,0.07339 -0.008,0.02444 -0.023,0.09785 -0.004,0.0203 -0.007,0.04088 -0.0115,0.06115 -0.007,0.03282 -0.0161,0.06503 -0.0229,0.09785 -0.0101,0.04894 -0.008,0.05687 -0.0229,0.09785 -0.008,0.0203 -0.0229,0.04477 -0.0345,0.06115 -0.003,0.0043 -0.009,0.007 -0.0115,0.01222 -0.002,0.0039 0,0.0081 0,0.01222 0,0.0039 -0.003,0.0093 0,0.01222 0.003,0.0027 0.009,0.0033 0.0115,0 0.007,-0.01077 0.008,-0.02444 0.0115,-0.03672 0.008,-0.02444 0.0153,-0.04894 0.023,-0.07337 0.004,-0.01222 0.007,-0.02471 0.0115,-0.03672 0.006,-0.01698 0.0175,-0.03162 0.0229,-0.04894 0.001,-0.0039 -0.002,-0.0087 0,-0.01222 0.003,-0.005 0.009,-0.007 0.0115,-0.01222 0.002,-0.0039 -0.004,-0.01222 0,-0.01222 0.004,0 0.001,0.0083 0,0.01222 -0.0315,0.100564 0.004,-0.0258 -0.0115,0.07339 -0.004,0.02543 -0.0163,0.04861 -0.0229,0.07339 -0.0288,0.107502 0.005,-0.0023 -0.0229,0.08561 -0.004,0.01222 -0.006,0.02514 -0.0115,0.03672 -0.003,0.005 -0.009,0.007 -0.0115,0.01222 -0.004,0.0072 0.005,0.01864 0,0.02444 -0.003,0.0027 -0.009,-0.0027 -0.0115,0 -0.005,0.0058 0.008,0.02444 0,0.02444 -0.004,0 0,-0.01636 0,-0.01222 0,0.0285 -4e-5,0.01636 6e-5,0.03649"
       style="fill:none;stroke:#ffb380;stroke-width:0.53081983px;stroke-linecap:butt;stroke-linejoin:miter;stroke-opacity:0.98095236" />
    <text
       transform="matrix(0.80954945,0.57664592,-0.57164575,0.82806901,0,0)"
       id="text906"
       y="-19.948574"
       x="102.87127"
       style="font-style:normal;font-weight:normal;font-size:14.31953907px;line-height:1.25;font-family:sans-serif;letter-spacing:0px;word-spacing:0px;fill:#ffeeaa;fill-opacity:1;stroke:none;stroke-width:0.35798845"
       xml:space="preserve"><tspan
         style="fill:#ffeeaa;stroke-width:0.35798845"
         y="-19.948574"
         x="102.87127"
         id="tspan904">$</tspan></text>
  </g>
  <g
     transform="translate(-87.51001,4.2152308)"
     id="layer2">
    <g
       id="flowRoot822"
       style="font-style:normal;font-weight:normal;font-size:40px;line-height:1.25;font-family:sans-serif;letter-spacing:0px;word-spacing:0px;fill:#000000;fill-opacity:1;stroke:none"
       transform="matrix(0.51423913,0,0,0.54793526,76.283987,-57.200805)"
       aria-label="Second Seller">
      <path
         id="path830"
         style="font-style:normal;font-variant:normal;font-weight:normal;font-stretch:normal;font-size:74.66666412px;font-family:'Lohit Telugu';-inkscape-font-specification:'Lohit Telugu'"
         d="m 69.572916,136.29418 q 0,-3.42709 -2.552084,-5.76042 -2.479166,-2.40625 -6.052083,-3.86458 -3.572916,-1.53125 -7.145833,-3.13542 -3.572916,-1.60417 -6.125,-4.59375 -2.479166,-3.0625 -2.479166,-7.51042 0,-6.05208 3.864583,-9.625 3.9375,-3.572913 10.572916,-3.572913 9.041667,0 14.072917,7.072913 l -3.71875,2.625 q -3.71875,-5.32291 -10.354167,-5.32291 -4.302083,0 -6.927083,2.40625 -2.552083,2.40625 -2.552083,6.41666 0,3.35417 2.479167,5.54167 2.552083,2.1875 6.124999,3.57292 3.572917,1.38541 7.145833,2.98958 3.572917,1.60417 6.052084,4.8125 2.552083,3.13542 2.552083,7.94792 0,5.6875 -4.15625,9.04166 -4.15625,3.35417 -11.083333,3.35417 -10.0625,0 -15.239583,-8.38542 l 3.71875,-2.625 q 3.9375,6.63542 11.520833,6.63542 4.666667,0 7.4375,-2.1875 2.84375,-2.1875 2.84375,-5.83333 z" />
      <path
         id="path832"
         style="font-style:normal;font-variant:normal;font-weight:normal;font-stretch:normal;font-size:74.66666412px;font-family:'Lohit Telugu';-inkscape-font-specification:'Lohit Telugu'"
         d="m 96.770831,148.69001 q -6.854166,0 -10.937499,-5.17708 -4.010417,-5.25 -4.010417,-14 0,-8.75 4.010417,-13.92709 4.083333,-5.25 10.937499,-5.25 6.635419,0 10.499999,4.8125 3.9375,4.8125 3.9375,12.83334 v 2.77083 H 86.635415 q 0.291667,6.27083 2.989583,9.91667 2.697917,3.64583 7.145833,3.64583 5.906249,0 9.187499,-4.95833 l 3.86458,2.55208 q -4.66666,6.78125 -13.052079,6.78125 z m 0,-33.97917 q -4.083333,0 -6.781249,3.13542 -2.625,3.0625 -3.208334,8.53125 h 19.541662 q -0.36458,-5.39583 -2.98958,-8.53125 -2.55208,-3.13542 -6.562499,-3.13542 z" />
      <path
         id="path834"
         style="font-style:normal;font-variant:normal;font-weight:normal;font-stretch:normal;font-size:74.66666412px;font-family:'Lohit Telugu';-inkscape-font-specification:'Lohit Telugu'"
         d="m 145.47917,142.34626 q -4.44792,6.34375 -12.32292,6.34375 -6.5625,0 -10.42708,-5.17708 -3.86459,-5.17709 -3.86459,-14 0,-8.82292 3.86459,-14 3.86458,-5.17709 10.42708,-5.17709 7.58333,0 11.73958,5.6875 l -3.86458,2.55209 q -2.77083,-3.86459 -7.875,-3.86459 -4.30208,0 -6.92708,4.01042 -2.55209,4.01042 -2.55209,10.79167 0,6.78125 2.55209,10.79166 2.625,4.01042 6.92708,4.01042 5.46875,0 8.45833,-4.52083 z" />
      <path
         id="path836"
         style="font-style:normal;font-variant:normal;font-weight:normal;font-stretch:normal;font-size:74.66666412px;font-family:'Lohit Telugu';-inkscape-font-specification:'Lohit Telugu'"
         d="m 153.86458,143.58584 q -3.9375,-5.10416 -3.9375,-14.07291 0,-8.96875 3.9375,-14.07292 4.01041,-5.10417 11.01041,-5.10417 7.07292,0 11.08333,5.10417 4.01042,5.10417 4.01042,14.07292 0,8.96875 -4.01042,14.07291 -4.01041,5.10417 -11.08333,5.10417 -7,0 -11.01041,-5.10417 z m 3.57291,-24.9375 q -2.69791,3.9375 -2.69791,10.86459 0,6.92708 2.69791,10.86458 2.69792,3.9375 7.4375,3.9375 4.8125,0 7.51042,-3.9375 2.77083,-3.9375 2.77083,-10.86458 0,-6.92709 -2.77083,-10.86459 -2.69792,-3.9375 -7.51042,-3.9375 -4.73958,0 -7.4375,3.9375 z" />
      <path
         id="path838"
         style="font-style:normal;font-variant:normal;font-weight:normal;font-stretch:normal;font-size:74.66666412px;font-family:'Lohit Telugu';-inkscape-font-specification:'Lohit Telugu'"
         d="m 217.59374,147.74209 h -4.8125 v -25.08333 q 0,-7.94792 -7.51041,-7.94792 -6.70834,0 -10.28125,5.97917 v 27.05208 h -4.8125 v -36.45833 h 4.44791 v 4.01042 q 4.375,-4.95834 10.64584,-4.95834 6.05208,0 9.1875,3.20834 3.13541,3.13541 3.13541,9.11458 z" />
      <path
         id="path840"
         style="font-style:normal;font-variant:normal;font-weight:normal;font-stretch:normal;font-size:74.66666412px;font-family:'Lohit Telugu';-inkscape-font-specification:'Lohit Telugu'"
         d="m 255.94791,147.74209 h -4.44792 v -3.86458 q -4.375,4.8125 -10.5,4.8125 -6.41666,0 -10.20833,-5.17708 -3.71875,-5.17709 -3.71875,-14 0,-8.82292 4.01042,-14 4.01041,-5.17709 10.71875,-5.17709 5.46875,0 9.33333,3.20834 V 96.700428 h 4.8125 z m -4.8125,-28 q -3.28125,-5.03125 -9.40625,-5.03125 -4.52083,0 -7.21875,4.01042 -2.625,4.01042 -2.625,10.79167 0,6.78125 2.40625,10.79166 2.47917,4.01042 6.63542,4.01042 6.48958,0 10.20833,-6.34375 z" />
      <path
         id="path842"
         style="font-style:normal;font-variant:normal;font-weight:normal;font-stretch:normal;font-size:74.66666412px;font-family:'Lohit Telugu';-inkscape-font-specification:'Lohit Telugu'"
         d="m 112.78425,195.13557 q 0,-3.42709 -2.55208,-5.76042 -2.47917,-2.40625 -6.05208,-3.86458 -3.57292,-1.53125 -7.145844,-3.13542 -3.572906,-1.60417 -6.124996,-4.59375 -2.47916,-3.0625 -2.47916,-7.51042 0,-6.05208 3.86458,-9.625 3.937496,-3.57291 10.57292,-3.57291 9.04166,0 14.07291,7.07291 l -3.71875,2.625 q -3.71875,-5.32291 -10.35416,-5.32291 -4.30209,0 -6.927094,2.40625 -2.552076,2.40625 -2.552076,6.41666 0,3.35417 2.479166,5.54167 2.552084,2.1875 6.125004,3.57292 3.57291,1.38541 7.14583,2.98958 3.57292,1.60417 6.05208,4.8125 2.55209,3.13542 2.55209,7.94792 0,5.6875 -4.15625,9.04166 -4.15625,3.35417 -11.08334,3.35417 -10.0625,0 -15.23958,-8.38542 l 3.71875,-2.625 q 3.9375,6.63542 11.52083,6.63542 4.66667,0 7.4375,-2.1875 2.84375,-2.1875 2.84375,-5.83333 z" />
      <path
         id="path844"
         style="font-style:normal;font-variant:normal;font-weight:normal;font-stretch:normal;font-size:74.66666412px;font-family:'Lohit Telugu';-inkscape-font-specification:'Lohit Telugu'"
         d="m 139.98218,207.5314 q -6.85417,0 -10.9375,-5.17708 -4.01042,-5.25 -4.01042,-14 0,-8.75 4.01042,-13.92709 4.08333,-5.25 10.9375,-5.25 6.63542,0 10.5,4.8125 3.9375,4.8125 3.9375,12.83334 v 2.77083 h -24.57292 q 0.29167,6.27083 2.98959,9.91667 2.69791,3.64583 7.14583,3.64583 5.90625,0 9.1875,-4.95833 l 3.86458,2.55208 q -4.66666,6.78125 -13.05208,6.78125 z m 0,-33.97917 q -4.08333,0 -6.78125,3.13542 -2.625,3.0625 -3.20833,8.53125 h 19.54166 q -0.36458,-5.39583 -2.98958,-8.53125 -2.55208,-3.13542 -6.5625,-3.13542 z" />
      <path
         id="path846"
         style="font-style:normal;font-variant:normal;font-weight:normal;font-stretch:normal;font-size:74.66666412px;font-family:'Lohit Telugu';-inkscape-font-specification:'Lohit Telugu'"
         d="m 169.80509,206.58348 h -4.8125 v -51.04166 h 4.8125 z" />
      <path
         id="path848"
         style="font-style:normal;font-variant:normal;font-weight:normal;font-stretch:normal;font-size:74.66666412px;font-family:'Lohit Telugu';-inkscape-font-specification:'Lohit Telugu'"
         d="m 187.74259,206.58348 h -4.8125 v -51.04166 h 4.8125 z" />
      <path
         id="path850"
         style="font-style:normal;font-variant:normal;font-weight:normal;font-stretch:normal;font-size:74.66666412px;font-family:'Lohit Telugu';-inkscape-font-specification:'Lohit Telugu'"
         d="m 212.89884,207.5314 q -6.85417,0 -10.9375,-5.17708 -4.01042,-5.25 -4.01042,-14 0,-8.75 4.01042,-13.92709 4.08333,-5.25 10.9375,-5.25 6.63541,0 10.5,4.8125 3.9375,4.8125 3.9375,12.83334 v 2.77083 h -24.57292 q 0.29167,6.27083 2.98958,9.91667 2.69792,3.64583 7.14584,3.64583 5.90625,0 9.1875,-4.95833 l 3.86458,2.55208 q -4.66667,6.78125 -13.05208,6.78125 z m 0,-33.97917 q -4.08334,0 -6.78125,3.13542 -2.625,3.0625 -3.20834,8.53125 h 19.54167 q -0.36458,-5.39583 -2.98958,-8.53125 -2.55209,-3.13542 -6.5625,-3.13542 z" />
      <path
         id="path852"
         style="font-style:normal;font-variant:normal;font-weight:normal;font-stretch:normal;font-size:74.66666412px;font-family:'Lohit Telugu';-inkscape-font-specification:'Lohit Telugu'"
         d="m 254.68008,174.13557 -2.11459,-0.21875 q -6.70833,0 -9.84375,7.51041 v 25.15625 h -4.8125 v -36.45833 h 4.44792 v 5.10417 q 4.15625,-6.05209 10.28125,-6.05209 1.60417,0 2.84375,0.21875 z" />
    </g>
  </g>
</svg>
