<?xml version="1.0" encoding="UTF-8" standalone="no"?>
<svg
   xmlns:dc="http://purl.org/dc/elements/1.1/"
   xmlns:cc="http://creativecommons.org/ns#"
   xmlns:rdf="http://www.w3.org/1999/02/22-rdf-syntax-ns#"
   xmlns:svg="http://www.w3.org/2000/svg"
   xmlns="http://www.w3.org/2000/svg"
   id="svg8"
   version="1.1"
   viewBox="0 0 120.39241 60.728199"
   height="60.728199mm"
   width="120.39241mm">
  <defs
     id="defs2" />
  <metadata
     id="metadata5">
    <rdf:RDF>
      <cc:Work
         rdf:about="">
        <dc:format>image/svg+xml</dc:format>
        <dc:type
           rdf:resource="http://purl.org/dc/dcmitype/StillImage" />
        <dc:title></dc:title>
      </cc:Work>
    </rdf:RDF>
  </metadata>
  <g
     transform="translate(-87.51001,4.2152308)"
     id="layer1">
    <rect
       transform="matrix(0.83667216,0.54770403,-0.55336326,0.83294003,0,0)"
       rx="27.515207"
       ry="2.752104"
       y="-36.505688"
       x="103.13502"
       height="25.748976"
       width="17.060427"
       id="rect815"
       style="opacity:1;fill:#ff7f29;fill-opacity:0.56078384;fill-rule:nonzero;stroke:none;stroke-width:0.20048147;stroke-linejoin:bevel;stroke-miterlimit:4;stroke-dasharray:none;stroke-opacity:0.72857139;paint-order:stroke fill markers" />
    <ellipse
       transform="matrix(0.83418318,0.55148746,-0.54987311,0.8352482,0,0)"
       ry="2.8147061"
       rx="2.6343062"
       cy="-31.329046"
       cx="110.90658"
       id="path817"
       style="opacity:1;fill:#ffffff;fill-opacity:0.56190479;fill-rule:nonzero;stroke:none;stroke-width:0.18770239;stroke-linejoin:bevel;stroke-miterlimit:4;stroke-dasharray:none;stroke-opacity:0.72857139;paint-order:stroke fill markers" />
    <path
       transform="scale(0.26458333)"
       id="path888"
       d=""
       style="opacity:1;fill:#ff7f29;fill-opacity:0.56078401;fill-rule:nonzero;stroke:#ffb380;stroke-width:0.02336895;stroke-linejoin:bevel;stroke-miterlimit:4;stroke-dasharray:none;stroke-opacity:0.99523806;paint-order:stroke fill markers" />
    <text
       transform="matrix(0.76632132,0.60917448,-0.54112115,0.87478032,0,0)"
       id="text906"
       y="-25.986069"
       x="111.67104"
       style="font-style:normal;font-weight:normal;font-size:12.9257431px;line-height:1.25;font-family:sans-serif;letter-spacing:0px;word-spacing:0px;fill:#ffeeaa;fill-opacity:1;stroke:none;stroke-width:0.32314357"
       xml:space="preserve"><tspan
         style="fill:#ffeeaa;stroke-width:0.32314357"
         y="-25.986069"
         x="111.67104"
         id="tspan904">$</tspan></text>
  </g>
  <g
     transform="translate(-87.51001,4.2152308)"
     id="layer2">
    <g
       id="flowRoot822"
       style="font-style:normal;font-weight:normal;font-size:40px;line-height:1.25;font-family:sans-serif;letter-spacing:0px;word-spacing:0px;fill:#000000;fill-opacity:1;stroke:none"
       transform="matrix(0.51423913,0,0,0.54793526,75.749448,-58.002614)"
       aria-label="Second Seller">
      <path
         id="path830"
         style="font-style:normal;font-variant:normal;font-weight:normal;font-stretch:normal;font-size:74.66666412px;font-family:'Lohit Telugu';-inkscape-font-specification:'Lohit Telugu';fill:#e6e6e6"
         d="m 53.689438,142.02445 q 0,-3.42709 -2.552084,-5.76042 -2.479166,-2.40625 -6.052083,-3.86458 -3.572916,-1.53125 -7.145833,-3.13542 -3.572916,-1.60417 -6.125,-4.59375 -2.479166,-3.0625 -2.479166,-7.51042 0,-6.05208 3.864583,-9.625 3.9375,-3.57291 10.572916,-3.57291 9.041667,0 14.072917,7.07291 l -3.71875,2.625 q -3.71875,-5.32291 -10.354167,-5.32291 -4.302083,0 -6.927083,2.40625 -2.552083,2.40625 -2.552083,6.41666 0,3.35417 2.479167,5.54167 2.552083,2.1875 6.124999,3.57292 3.572917,1.38541 7.145833,2.98958 3.572917,1.60417 6.052084,4.8125 2.552083,3.13542 2.552083,7.94792 0,5.6875 -4.15625,9.04166 -4.15625,3.35417 -11.083333,3.35417 -10.0625,0 -15.239583,-8.38542 l 3.71875,-2.625 q 3.9375,6.63542 11.520833,6.63542 4.666667,0 7.4375,-2.1875 2.84375,-2.1875 2.84375,-5.83333 z" />
      <path
         id="path832"
         style="font-style:normal;font-variant:normal;font-weight:normal;font-stretch:normal;font-size:74.66666412px;font-family:'Lohit Telugu';-inkscape-font-specification:'Lohit Telugu';fill:#e6e6e6"
         d="m 80.887353,154.42028 q -6.854166,0 -10.937499,-5.17708 -4.010417,-5.25 -4.010417,-14 0,-8.75 4.010417,-13.92709 4.083333,-5.25 10.937499,-5.25 6.635419,0 10.499999,4.8125 3.9375,4.8125 3.9375,12.83334 v 2.77083 H 70.751937 q 0.291667,6.27083 2.989583,9.91667 2.697917,3.64583 7.145833,3.64583 5.906249,0 9.187499,-4.95833 l 3.86458,2.55208 q -4.66666,6.78125 -13.052079,6.78125 z m 0,-33.97917 q -4.083333,0 -6.781249,3.13542 -2.625,3.0625 -3.208334,8.53125 h 19.541662 q -0.36458,-5.39583 -2.98958,-8.53125 -2.55208,-3.13542 -6.562499,-3.13542 z" />
      <path
         id="path834"
         style="font-style:normal;font-variant:normal;font-weight:normal;font-stretch:normal;font-size:74.66666412px;font-family:'Lohit Telugu';-inkscape-font-specification:'Lohit Telugu';fill:#e6e6e6"
         d="m 129.59569,148.07653 q -4.44792,6.34375 -12.32292,6.34375 -6.5625,0 -10.42708,-5.17708 -3.86459,-5.17709 -3.86459,-14 0,-8.82292 3.86459,-14 3.86458,-5.17709 10.42708,-5.17709 7.58333,0 11.73958,5.6875 l -3.86458,2.55209 q -2.77083,-3.86459 -7.875,-3.86459 -4.30208,0 -6.92708,4.01042 -2.55209,4.01042 -2.55209,10.79167 0,6.78125 2.55209,10.79166 2.625,4.01042 6.92708,4.01042 5.46875,0 8.45833,-4.52083 z" />
      <path
         id="path836"
         style="font-style:normal;font-variant:normal;font-weight:normal;font-stretch:normal;font-size:74.66666412px;font-family:'Lohit Telugu';-inkscape-font-specification:'Lohit Telugu';fill:#e6e6e6"
         d="m 137.9811,149.31611 q -3.9375,-5.10416 -3.9375,-14.07291 0,-8.96875 3.9375,-14.07292 4.01041,-5.10417 11.01041,-5.10417 7.07292,0 11.08333,5.10417 4.01042,5.10417 4.01042,14.07292 0,8.96875 -4.01042,14.07291 -4.01041,5.10417 -11.08333,5.10417 -7,0 -11.01041,-5.10417 z m 3.57291,-24.9375 q -2.69791,3.9375 -2.69791,10.86459 0,6.92708 2.69791,10.86458 2.69792,3.9375 7.4375,3.9375 4.8125,0 7.51042,-3.9375 2.77083,-3.9375 2.77083,-10.86458 0,-6.92709 -2.77083,-10.86459 -2.69792,-3.9375 -7.51042,-3.9375 -4.73958,0 -7.4375,3.9375 z" />
      <path
         id="path838"
         style="font-style:normal;font-variant:normal;font-weight:normal;font-stretch:normal;font-size:74.66666412px;font-family:'Lohit Telugu';-inkscape-font-specification:'Lohit Telugu';fill:#e6e6e6"
         d="m 201.71026,153.47236 h -4.8125 v -25.08333 q 0,-7.94792 -7.51041,-7.94792 -6.70834,0 -10.28125,5.97917 v 27.05208 h -4.8125 v -36.45833 h 4.44791 v 4.01042 q 4.375,-4.95834 10.64584,-4.95834 6.05208,0 9.1875,3.20834 3.13541,3.13541 3.13541,9.11458 z" />
      <path
         id="path840"
         style="font-style:normal;font-variant:normal;font-weight:normal;font-stretch:normal;font-size:74.66666412px;font-family:'Lohit Telugu';-inkscape-font-specification:'Lohit Telugu';fill:#e6e6e6"
         d="m 240.06443,153.47236 h -4.44792 v -3.86458 q -4.375,4.8125 -10.5,4.8125 -6.41666,0 -10.20833,-5.17708 -3.71875,-5.17709 -3.71875,-14 0,-8.82292 4.01042,-14 4.01041,-5.17709 10.71875,-5.17709 5.46875,0 9.33333,3.20834 V 102.4307 h 4.8125 z m -4.8125,-28 q -3.28125,-5.03125 -9.40625,-5.03125 -4.52083,0 -7.21875,4.01042 -2.625,4.01042 -2.625,10.79167 0,6.78125 2.40625,10.79166 2.47917,4.01042 6.63542,4.01042 6.48958,0 10.20833,-6.34375 z" />
      <path
         id="path842"
         style="font-style:normal;font-variant:normal;font-weight:normal;font-stretch:normal;font-size:74.66666412px;font-family:'Lohit Telugu';-inkscape-font-specification:'Lohit Telugu';fill:#e6e6e6"
         d="m 112.78425,195.13557 q 0,-3.42709 -2.55208,-5.76042 -2.47917,-2.40625 -6.05208,-3.86458 -3.57292,-1.53125 -7.145844,-3.13542 -3.572906,-1.60417 -6.124996,-4.59375 -2.47916,-3.0625 -2.47916,-7.51042 0,-6.05208 3.86458,-9.625 3.937496,-3.57291 10.57292,-3.57291 9.04166,0 14.07291,7.07291 l -3.71875,2.625 q -3.71875,-5.32291 -10.35416,-5.32291 -4.30209,0 -6.927094,2.40625 -2.552076,2.40625 -2.552076,6.41666 0,3.35417 2.479166,5.54167 2.552084,2.1875 6.125004,3.57292 3.57291,1.38541 7.14583,2.98958 3.57292,1.60417 6.05208,4.8125 2.55209,3.13542 2.55209,7.94792 0,5.6875 -4.15625,9.04166 -4.15625,3.35417 -11.08334,3.35417 -10.0625,0 -15.23958,-8.38542 l 3.71875,-2.625 q 3.9375,6.63542 11.52083,6.63542 4.66667,0 7.4375,-2.1875 2.84375,-2.1875 2.84375,-5.83333 z" />
      <path
         id="path844"
         style="font-style:normal;font-variant:normal;font-weight:normal;font-stretch:normal;font-size:74.66666412px;font-family:'Lohit Telugu';-inkscape-font-specification:'Lohit Telugu';fill:#e6e6e6"
         d="m 139.98218,207.5314 q -6.85417,0 -10.9375,-5.17708 -4.01042,-5.25 -4.01042,-14 0,-8.75 4.01042,-13.92709 4.08333,-5.25 10.9375,-5.25 6.63542,0 10.5,4.8125 3.9375,4.8125 3.9375,12.83334 v 2.77083 h -24.57292 q 0.29167,6.27083 2.98959,9.91667 2.69791,3.64583 7.14583,3.64583 5.90625,0 9.1875,-4.95833 l 3.86458,2.55208 q -4.66666,6.78125 -13.05208,6.78125 z m 0,-33.97917 q -4.08333,0 -6.78125,3.13542 -2.625,3.0625 -3.20833,8.53125 h 19.54166 q -0.36458,-5.39583 -2.98958,-8.53125 -2.55208,-3.13542 -6.5625,-3.13542 z" />
      <path
         id="path846"
         style="font-style:normal;font-variant:normal;font-weight:normal;font-stretch:normal;font-size:74.66666412px;font-family:'Lohit Telugu';-inkscape-font-specification:'Lohit Telugu';fill:#e6e6e6"
         d="m 169.80509,206.58348 h -4.8125 v -51.04166 h 4.8125 z" />
      <path
         id="path848"
         style="font-style:normal;font-variant:normal;font-weight:normal;font-stretch:normal;font-size:74.66666412px;font-family:'Lohit Telugu';-inkscape-font-specification:'Lohit Telugu';fill:#e6e6e6"
         d="m 187.74259,206.58348 h -4.8125 v -51.04166 h 4.8125 z" />
      <path
         id="path850"
         style="font-style:normal;font-variant:normal;font-weight:normal;font-stretch:normal;font-size:74.66666412px;font-family:'Lohit Telugu';-inkscape-font-specification:'Lohit Telugu';fill:#e6e6e6"
         d="m 212.89884,207.5314 q -6.85417,0 -10.9375,-5.17708 -4.01042,-5.25 -4.01042,-14 0,-8.75 4.01042,-13.92709 4.08333,-5.25 10.9375,-5.25 6.63541,0 10.5,4.8125 3.9375,4.8125 3.9375,12.83334 v 2.77083 h -24.57292 q 0.29167,6.27083 2.98958,9.91667 2.69792,3.64583 7.14584,3.64583 5.90625,0 9.1875,-4.95833 l 3.86458,2.55208 q -4.66667,6.78125 -13.05208,6.78125 z m 0,-33.97917 q -4.08334,0 -6.78125,3.13542 -2.625,3.0625 -3.20834,8.53125 h 19.54167 q -0.36458,-5.39583 -2.98958,-8.53125 -2.55209,-3.13542 -6.5625,-3.13542 z" />
      <path
         id="path852"
         style="font-style:normal;font-variant:normal;font-weight:normal;font-stretch:normal;font-size:74.66666412px;font-family:'Lohit Telugu';-inkscape-font-specification:'Lohit Telugu';fill:#e6e6e6"
         d="m 254.68008,174.13557 -2.11459,-0.21875 q -6.70833,0 -9.84375,7.51041 v 25.15625 h -4.8125 v -36.45833 h 4.44792 v 5.10417 q 4.15625,-6.05209 10.28125,-6.05209 1.60417,0 2.84375,0.21875 z" />
    </g>
  </g>
</svg>
